<?xml version="1.0" encoding="UTF-8"?>
<svg width="2134px" height="396px" viewBox="0 0 2134 396" version="1.1" xmlns="http://www.w3.org/2000/svg" xmlns:xlink="http://www.w3.org/1999/xlink">
    <title>relevanzz</title>
    <g id="Page-1" stroke="none" stroke-width="1" fill="none" fill-rule="evenodd">
        <path d="M153.592,128.368 C159.224,128.368 163.832,128.88 172.536,130.416 L149.496,199.024 C142.84,195.952 136.696,195.44 131.064,195.44 C107,195.44 90.104,213.872 84.984,236.4 L84.984,390 L20.472,390 L20.472,200.56 C20.472,192.88 15.352,188.784 8.696,188.784 L0.504,188.784 L0.504,134 L24.056,134 C52.728,134 73.208,149.872 81.4,175.472 C95.224,151.408 119.288,128.368 153.592,128.368 Z M255.896,285.04 C259.992,327.024 274.84,345.968 301.464,346.48 C321.944,346.992 347.032,337.264 369.56,321.904 L395.16,367.984 C363.416,386.928 332.696,395.632 296.856,395.632 C230.808,395.632 190.872,353.136 190.872,257.904 C190.872,166.256 236.44,128.368 299.416,128.368 C378.264,128.368 404.888,169.84 404.888,248.176 C404.888,261.488 403.352,277.872 401.816,285.04 L255.896,285.04 Z M255.384,238.96 L342.424,238.96 L342.424,236.4 C342.424,194.416 331.16,175.472 299.928,175.472 C274.84,175.472 258.968,190.832 255.384,238.96 Z M528.696,314.736 C528.696,338.288 547.128,345.456 564.536,337.776 L564.536,390 C558.904,393.072 546.616,395.632 532.792,395.632 C501.048,395.632 464.184,379.76 464.184,324.976 L464.184,16.752 L528.696,0.368 L528.696,314.736 Z M663.768,285.04 C667.864,327.024 682.712,345.968 709.336,346.48 C729.816,346.992 754.904,337.264 777.432,321.904 L803.032,367.984 C771.288,386.928 740.568,395.632 704.728,395.632 C638.68,395.632 598.744,353.136 598.744,257.904 C598.744,166.256 644.312,128.368 707.288,128.368 C786.136,128.368 812.76,169.84 812.76,248.176 C812.76,261.488 811.224,277.872 809.688,285.04 L663.768,285.04 Z M663.256,238.96 L750.296,238.96 L750.296,236.4 C750.296,194.416 739.032,175.472 707.8,175.472 C682.712,175.472 666.84,190.832 663.256,238.96 Z M844.92,142.704 L910.968,128.368 L956.536,297.328 L962.68,334.192 L964.728,334.192 L971.384,297.328 L1017.976,128.368 L1083,142.704 L1000.568,390 L927.352,390 L844.92,142.704 Z M1344.536,337.776 L1352.728,337.776 L1352.728,393.072 L1329.176,393.072 C1303.064,393.072 1283.608,379.76 1274.392,358.256 C1253.912,384.368 1231.384,395.632 1204.76,395.632 C1163.288,395.632 1113.112,363.888 1113.112,264.048 C1113.112,171.888 1162.264,128.368 1228.824,128.368 C1271.32,128.368 1305.624,140.656 1332.76,159.6 L1332.76,326 C1332.76,333.68 1337.88,337.776 1344.536,337.776 Z M1219.096,343.408 C1239.576,343.408 1253.912,330.608 1268.248,312.176 L1268.248,184.688 C1255.448,178.544 1242.136,175.472 1231.384,175.472 C1198.104,175.472 1178.136,201.584 1178.136,264.048 C1178.136,324.976 1195.544,343.408 1219.096,343.408 Z M1629.624,337.776 L1637.816,337.776 L1637.816,393.072 L1614.264,393.072 C1577.4,393.072 1553.336,365.936 1553.336,326 L1553.336,210.288 C1553.336,190.832 1542.072,182.128 1527.736,182.128 C1511.864,182.128 1492.92,192.368 1479.096,210.288 L1479.096,390 L1414.584,390 L1414.584,200.56 C1414.584,192.88 1409.464,188.784 1402.808,188.784 L1394.616,188.784 L1394.616,134 L1418.168,134 C1444.792,134 1464.76,147.824 1473.464,170.352 C1495.992,142.704 1525.176,128.368 1553.336,128.368 C1587.64,128.368 1617.848,149.36 1617.848,192.88 L1617.848,326 C1617.848,333.68 1622.968,337.776 1629.624,337.776 Z M1757.528,341.36 L1887.576,341.36 L1870.68,390 L1676.632,390 L1676.632,356.72 L1796.44,182.64 L1681.24,182.64 L1681.24,134 L1878.36,134 L1878.36,167.28 L1878.872,166.768 L1757.528,341.36 Z M2003.704,341.36 L2133.752,341.36 L2116.856,390 L1922.808,390 L1922.808,356.72 L2042.616,182.64 L1927.416,182.64 L1927.416,134 L2124.536,134 L2124.536,167.28 L2125.048,166.768 L2003.704,341.36 Z" id="relevanzz" fill="#1F1F21" fill-rule="nonzero"></path>
    </g>
</svg>
